<svg width="123" height="123" viewBox="0 0 123 123" fill="none" xmlns="http://www.w3.org/2000/svg">
    <g clip-path="url(#clip0)">
        <path d="M116.85 16.3359H6.15038C2.75331 16.3359 0 19.0892 0 22.4863V92.1862C0 95.5823 2.75331 98.3366 6.15038 98.3366H10.2503V104.486C10.2503 105.619 11.1681 106.536 12.2998 106.536H28.6996C29.8322 106.536 30.75 105.619 30.75 104.486V98.3366H92.25V104.486C92.25 105.619 93.1678 106.536 94.3004 106.536H110.7C111.832 106.536 112.75 105.619 112.75 104.486V98.3366H116.851C120.247 98.3366 123 95.5823 123 92.1862V22.4863C123 19.0892 120.247 16.3359 116.85 16.3359V16.3359ZM26.6501 102.437H14.3503V98.3356H26.6501V102.437ZM108.65 102.437H96.3499V98.3356H108.65V102.437ZM118.9 92.1862C118.9 93.3179 117.982 94.2357 116.85 94.2357H6.15038C5.01771 94.2357 4.09994 93.3179 4.09994 92.1862V22.4863C4.09994 21.3536 5.01771 20.4359 6.15038 20.4359H116.85C117.982 20.4359 118.9 21.3536 118.9 22.4863V92.1862Z" />
        <path d="M108.65 26.5862H84.05C80.653 26.5862 77.8997 29.3395 77.8997 32.7356V81.9358C77.8997 85.3329 80.653 88.0862 84.05 88.0862H108.65C112.047 88.0862 114.8 85.3329 114.8 81.9358V32.7356C114.8 29.3395 112.047 26.5862 108.65 26.5862ZM81.9996 49.1363H110.7V65.5361H81.9996V49.1363ZM84.05 30.6861H108.65C109.782 30.6861 110.7 31.6039 110.7 32.7356V45.0364H81.9996V32.7356C81.9996 31.6039 82.9174 30.6861 84.05 30.6861ZM108.65 83.9863H84.05C82.9174 83.9863 81.9996 83.0685 81.9996 81.9358V69.636H110.7V81.9358C110.7 83.0685 109.782 83.9863 108.65 83.9863Z" />
        <path d="M41.0004 24.5359C22.8852 24.5359 8.19995 39.2212 8.19995 57.3363C8.19995 75.4515 22.8852 90.1358 41.0004 90.1358C59.1146 90.1358 73.7999 75.4515 73.7999 57.3363C73.7783 39.2305 59.1062 24.5575 41.0004 24.5359ZM41.0004 86.0359C25.1496 86.0359 12.2999 73.1871 12.2999 57.3363C12.2999 41.4855 25.1496 28.6358 41.0004 28.6358C56.8502 28.6358 69.7 41.4855 69.7 57.3363C69.6831 73.1796 56.8437 86.019 41.0004 86.0359Z" />
        <path d="M47.1496 57.3363C47.143 57.0895 47.1215 56.8437 47.0839 56.6006C49.8851 53.411 51.3734 49.2791 51.2496 45.0365C51.2496 36.9896 46.7395 30.6863 41.0002 30.6863C39.8675 30.6863 38.9497 31.6041 38.9497 32.7358V51.5792C38.3576 51.7809 37.7992 52.0728 37.2953 52.4444C33.1391 51.6111 28.8214 52.3871 25.2151 54.6159C21.4211 56.64 18.557 60.0531 17.2198 64.1399C16.561 66.3207 16.8153 68.6752 17.9255 70.6647C18.4923 71.6416 19.7432 71.9756 20.721 71.4116L37.0316 61.9937C37.4961 62.4047 38.0226 62.7407 38.5913 62.9903C39.9567 67.0048 42.7963 70.3522 46.535 72.3548C49.2686 73.9773 52.3766 74.8622 55.555 74.9232C56.6473 74.9279 57.7349 74.7899 58.7916 74.5131C61.0044 73.9942 62.9122 72.6025 64.0814 70.6543C64.6454 69.6746 64.3095 68.4228 63.3307 67.856L47.0107 58.4268C47.0886 58.0683 47.1355 57.7033 47.1496 57.3363ZM40.6595 59.3511C39.5485 59.17 38.7958 58.1227 38.977 57.0117C39.0342 56.6607 39.1825 56.3313 39.4068 56.0545C40.1087 55.1733 41.3915 55.0269 42.2727 55.7288C42.5795 55.9719 42.8094 56.2994 42.9352 56.6701C43.0178 56.8822 43.0562 57.1083 43.0497 57.3363C43.0506 57.6958 42.9568 58.0495 42.7775 58.3611C42.6781 58.5253 42.5589 58.6773 42.4228 58.8125C42.3384 58.8876 42.2483 58.9561 42.1544 59.0171C42.1019 59.0574 42.0484 59.0949 41.9921 59.1297C41.8748 59.1935 41.7519 59.2451 41.6252 59.2836C41.5782 59.2995 41.5332 59.3164 41.4835 59.3286C41.3671 59.3539 41.2498 59.369 41.1306 59.3755C40.9946 59.3905 40.8575 59.3905 40.7205 59.3755C40.7027 59.3558 40.6886 59.3577 40.6595 59.3511ZM43.0497 35.4009C45.4117 36.8357 47.1496 40.6776 47.1496 45.0365C47.2012 47.7401 46.4618 50.4015 45.0222 52.6912C44.965 52.6415 44.8974 52.6067 44.8374 52.5579C44.6497 52.4069 44.4526 52.2661 44.249 52.1375C44.1448 52.0718 44.0444 52.0099 43.9337 51.9508C43.7169 51.8344 43.4945 51.7303 43.2655 51.6411C43.1914 51.6101 43.1238 51.567 43.0497 51.5407V35.4009ZM20.9819 66.5281C20.9988 66.0786 21.0673 65.6319 21.1865 65.1984C22.2553 62.1729 24.4259 59.6627 27.2646 58.1687C29.3648 56.9159 31.7512 56.2234 34.1957 56.1577C34.4538 56.1577 34.7109 56.1577 34.9587 56.1859V56.2375C34.8892 56.5997 34.8526 56.9676 34.8498 57.3363C34.8507 57.7136 34.8855 58.0908 34.954 58.4615L20.9819 66.5281ZM57.7237 70.5568C54.5631 71.1611 51.2899 70.5333 48.5788 68.8C46.2112 67.5022 44.2762 65.539 43.015 63.1517C43.3828 63.0241 43.7375 62.8617 44.0744 62.6666H44.0876C44.4132 62.4779 44.721 62.2583 45.0053 62.0125L58.9699 70.0753C58.5748 70.2846 58.1572 70.446 57.7237 70.5568Z" />
    </g>
    <defs>
        <clipPath id="clip0">
            <rect width="123" height="123" fill="white"/>
        </clipPath>
    </defs>
</svg>
