<svg width="123" height="123" viewBox="0 0 123 123" fill="none" xmlns="http://www.w3.org/2000/svg">
    <path d="M103.843 0H19.157C8.5939 0 0 8.59366 0 19.157V103.843C0 114.406 8.5939 123 19.157 123H103.843C114.406 123 123 114.406 123 103.843V19.157C123 8.59366 114.406 0 103.843 0ZM119.396 103.843C119.396 112.419 112.419 119.396 103.843 119.396H19.157C10.5809 119.396 3.60352 112.419 3.60352 103.843V19.157C3.60352 10.5806 10.5809 3.60352 19.157 3.60352H103.843C112.419 3.60352 119.396 10.5806 119.396 19.157V103.843Z" />
    <path d="M103.843 8.55469H19.1569C13.3108 8.55469 8.55444 13.3108 8.55444 19.1572V24.6168C8.55444 25.6118 9.36115 26.4185 10.3562 26.4185C11.3513 26.4185 12.158 25.6118 12.158 24.6168V19.1572C12.158 15.2981 15.2976 12.1582 19.1569 12.1582H103.843C107.702 12.1582 110.842 15.2978 110.842 19.1572V103.843C110.842 107.702 107.702 110.842 103.843 110.842H19.1569C15.2978 110.842 12.158 107.702 12.158 103.843V33.0399C12.158 32.0448 11.3513 31.2381 10.3562 31.2381C9.36115 31.2381 8.55444 32.0448 8.55444 33.0399V103.843C8.55444 109.689 13.3106 114.445 19.1569 114.445H103.843C109.689 114.445 114.445 109.689 114.445 103.843V19.1572C114.445 13.3108 109.689 8.55469 103.843 8.55469Z" />
    <path d="M90.478 59.137C85.4418 55.5829 76.9682 54.2283 70.1821 55.7766C69.4825 54.7049 68.5905 53.7709 67.5544 53.0233C68.9052 50.2351 71.2581 48.1808 75.3284 46.1631C77.4696 45.1013 80.1347 43.7798 80.1347 40.2762C80.1347 30.7074 70.5035 24.7844 61.5802 24.7844C51.3494 24.7844 43.026 31.7339 43.026 40.2762C43.026 44.5187 45.1045 50.1753 48.3212 54.6866C49.3545 56.1352 50.4524 57.4104 51.5944 58.4965C51.3708 59.2559 51.2298 60.0503 51.1872 60.8707C48.3383 60.6632 45.653 59.3796 42.3303 56.6962L42.2856 56.6602C40.4466 55.1741 38.1576 53.324 34.9736 54.7887C26.28 58.7862 24.9224 70.0112 28.6504 78.1184C32.5912 86.6892 42.1328 92.3407 50.4766 88.5035C56.36 85.7982 62.1585 78.3567 63.9045 71.4752C64.4253 71.3515 64.9308 71.1893 65.418 70.9899C67.1208 73.5306 67.9104 76.5576 67.0429 82.1351C66.6759 84.4968 66.2189 87.4361 69.0818 89.4567C76.6811 94.8195 87.1008 90.7907 92.4371 83.2289C95.1078 79.4445 96.5281 74.7806 96.334 70.4335C96.1211 65.6634 94.0414 61.6515 90.478 59.137ZM51.2552 52.5942C48.4884 48.7139 46.6297 43.7637 46.6297 40.2759C46.6297 33.7207 53.3366 28.3877 61.5805 28.3877C70.8153 28.3877 76.5315 34.5586 76.5315 40.2759C76.5315 41.3949 75.9676 41.8238 73.7279 42.9344C68.9213 45.3173 66.007 47.9305 64.3071 51.4555C63.4188 51.2061 62.4835 51.0699 61.5163 51.0699C58.18 51.0699 55.209 52.6593 53.3164 55.1193C52.6092 54.3678 51.9195 53.5256 51.2552 52.5942ZM48.9713 85.2293C42.4975 88.207 35.0161 83.3365 31.9245 76.6126C28.0664 68.2222 31.2848 60.4508 36.4794 58.0622C37.4968 57.5947 38.1125 57.9204 40.0209 59.4625L40.0661 59.4988C44.2303 62.862 47.7805 64.4104 51.6444 64.5019C52.8251 68.2671 56.1055 71.11 60.1071 71.6577C58.2064 77.5932 53.0442 83.3564 48.9713 85.2293ZM61.5163 68.153C57.7999 68.153 54.7766 65.1296 54.7766 61.4132C54.7766 57.6968 57.7999 54.6734 61.5163 54.6734C65.2325 54.6734 68.2561 57.6968 68.2561 61.4132C68.2561 65.1661 65.1881 68.153 61.5163 68.153ZM89.4933 81.1509C85.2474 87.1675 77.0127 90.6427 71.1601 86.5122C70.2455 85.8669 70.2203 85.1592 70.6044 82.6884C71.5094 76.868 70.891 72.7782 68.4625 69.0707C71.2122 66.5742 72.4251 62.8178 71.61 59.1617C77.2517 58.0872 84.4145 59.2686 88.4005 62.0813C91.033 63.939 92.5722 66.9624 92.7346 70.594C92.8936 74.1586 91.7124 78.0064 89.4933 81.1509Z" />
    <path d="M93.1311 101.739C93.1311 105.647 96.3101 108.826 100.218 108.826C104.126 108.826 107.305 105.647 107.305 101.739C107.305 97.8316 104.126 94.6523 100.218 94.6523C96.3101 94.6523 93.1311 97.8316 93.1311 101.739ZM103.701 101.739C103.701 103.66 102.139 105.223 100.218 105.223C98.2973 105.223 96.7346 103.66 96.7346 101.739C96.7346 99.8186 98.2973 98.2559 100.218 98.2559C102.139 98.2559 103.701 99.8186 103.701 101.739Z" />
    <path d="M93.5371 33.9371C92.7619 34.5613 92.6396 35.6954 93.2635 36.4704C99.1425 43.7733 102.25 52.5995 102.25 61.9948C102.25 84.4556 83.977 102.729 61.516 102.729C52.1209 102.729 43.2947 99.6211 35.9918 93.7421C35.2171 93.1182 34.0827 93.2407 33.4586 94.0157C32.8347 94.7909 32.9572 95.9251 33.7322 96.549C41.5689 102.858 51.436 106.332 61.516 106.332C85.9637 106.332 105.853 86.4425 105.853 61.9948C105.853 51.9146 102.379 42.0475 96.0701 34.2108C95.4465 33.4355 94.3123 33.3133 93.5371 33.9371Z" />
    <path d="M89.9195 27.9479C81.9728 21.3119 71.8856 17.6572 61.5164 17.6572C37.0687 17.6572 17.179 37.5469 17.179 61.9949C17.179 72.3644 20.8336 82.4513 27.4696 90.3978C27.8259 90.8244 28.3378 91.0445 28.8536 91.0445C29.2608 91.0445 29.6704 90.9071 30.0077 90.6258C30.7714 89.9879 30.8735 88.8516 30.2357 88.0879C24.1397 80.7882 20.7825 71.5216 20.7825 61.9949C20.7825 39.5339 39.0557 21.2607 61.5164 21.2607C71.0431 21.2607 80.3099 24.618 87.6097 30.714C88.3736 31.352 89.5097 31.2494 90.1475 30.486C90.7853 29.722 90.683 28.586 89.9195 27.9479Z" />
</svg>
