<svg width="111" height="117" viewBox="0 0 111 117" xmlns="http://www.w3.org/2000/svg">
    <path d="M110.234 47.0821V16.2188C110.234 15.709 110.032 15.2202 109.671 14.8598C109.311 14.4994 108.822 14.2969 108.312 14.2969H89.2455C89.1936 13.6492 89.1513 13.015 89.0994 12.375L89.0937 12.2116C89.0559 11.7684 88.8655 11.3519 88.555 11.0333C88.2445 10.7148 87.8331 10.5138 87.3909 10.4647C81.5663 9.81634 75.7277 9.33395 69.8749 9.01748V2.76562C69.8749 2.25591 69.6725 1.76708 69.312 1.40665C68.9516 1.04623 68.4628 0.84375 67.9531 0.84375H41.0468C40.5371 0.84375 40.0483 1.04623 39.6878 1.40665C39.3274 1.76708 39.1249 2.25591 39.1249 2.76562V8.85797C31.989 9.16162 24.8646 9.67669 17.7729 10.4647C17.3165 10.5486 16.9008 10.7818 16.5912 11.1275C16.2817 11.4733 16.0957 11.9121 16.0624 12.375C16.0106 13.0227 15.9683 13.6511 15.9183 14.2969H2.60932C2.33686 14.297 2.06754 14.355 1.8192 14.467C1.57087 14.5791 1.34921 14.7427 1.16892 14.947C0.98863 15.1513 0.853837 15.3916 0.773479 15.6519C0.693121 15.9123 0.669036 16.1867 0.702821 16.4571C2.00851 26.8636 6.0019 36.7507 12.2898 45.1449L13.7562 47.0975C12.7203 67.0235 12.2187 86.4652 12.2187 106.547C12.2187 107.057 12.4212 107.545 12.7816 107.906C13.142 108.266 13.6309 108.469 14.1406 108.469H16.0624V114.234C16.0624 114.744 16.2649 115.233 16.6253 115.593C16.9858 115.954 17.4746 116.156 17.9843 116.156H87.1718C87.6815 116.156 88.1704 115.954 88.5308 115.593C88.8912 115.233 89.0937 114.744 89.0937 114.234V108.469H91.0156C91.5253 108.469 92.0141 108.266 92.3745 107.906C92.735 107.545 92.9374 107.057 92.9374 106.547C92.9374 99.1246 92.8644 91.7946 92.726 84.4914L96.1623 81.0551C100.637 76.6039 104.185 71.3094 106.601 65.478C109.016 59.6466 110.251 53.394 110.234 47.0821ZM90.1027 25.8281H98.7031V46.0366C98.6962 53.5076 96.4488 60.8048 92.2513 66.9851C91.7843 53.4416 91.079 39.8424 90.1027 25.8281ZM42.9687 4.6875H66.0312V8.85797C58.3437 8.53125 50.6562 8.46398 42.9687 8.69845V4.6875ZM40.9142 12.6287C40.9603 12.6287 41.0007 12.6556 41.0468 12.6556C41.1116 12.6456 41.1757 12.6322 41.239 12.6152C50.0527 12.2949 58.8703 12.3449 67.6917 12.7651C67.7775 12.788 67.8649 12.8047 67.9531 12.8151C68.0106 12.8065 68.0677 12.795 68.1241 12.7805C73.8897 13.0688 79.6425 13.5134 85.3826 14.1143C87.8598 45.5177 89.0456 74.3728 89.0937 104.625H16.0624C16.1086 74.417 17.2905 45.5985 19.7736 14.1143C26.798 13.3705 33.8513 12.892 40.9142 12.6287ZM4.82909 18.1406H15.6204C15.0349 25.8935 14.5269 33.5246 14.0964 41.034C9.35792 34.1791 6.19333 26.3614 4.82909 18.1406ZM85.2499 112.312H19.9062V108.469H85.2499V112.312ZM92.6069 79.1755C92.5588 77.1326 92.5108 75.0877 92.4512 73.0448C98.96 65.5521 102.545 55.9615 102.547 46.0366V23.9062C102.547 23.3965 102.344 22.9077 101.984 22.5473C101.623 22.1869 101.135 21.9844 100.625 21.9844H89.824C89.7318 20.7102 89.6318 19.4225 89.5357 18.1406H106.391V47.0821C106.406 52.8891 105.27 58.6415 103.048 64.0064C100.826 69.3714 97.5619 74.2424 93.4448 78.3376L92.6069 79.1755Z" />
</svg>
