<svg width="101" height="101" viewBox="0 0 101 101" fill="none" xmlns="http://www.w3.org/2000/svg">
    <path d="M28.152 8.09937C27.3239 8.09937 26.6526 8.77066 26.6526 9.59878V18.9955C26.6526 19.8236 27.3239 20.4949 28.152 20.4949C28.9801 20.4949 29.6514 19.8236 29.6514 18.9955V9.59878C29.6514 8.77066 28.9801 8.09937 28.152 8.09937Z" />
    <path d="M100.558 87.8921C100.558 87.8951 100.558 87.8978 100.558 87.9004C100.561 87.3589 100.563 86.8162 100.545 86.2749C100.449 81.4634 99.7926 76.6778 98.582 72.0123C98.3741 71.2108 97.5556 70.73 96.7539 70.9374C95.9524 71.1455 95.4711 71.9639 95.679 72.7654C96.7628 76.9417 97.3796 81.2192 97.5254 85.5232C96.0473 86.4647 94.1987 87.5382 91.4398 88.2592C89.2596 88.8291 86.8764 89.0826 84.343 89.0171L82.7907 83.6866C82.2634 81.8757 81.0863 80.3714 79.5611 79.3993C81.3686 77.9215 82.525 75.6757 82.525 73.1645C82.525 72.7577 82.494 72.3583 82.4356 71.9677C83.2442 72.1943 84.0952 72.3182 84.9752 72.3182C88.8899 72.3182 92.2537 69.9175 93.674 66.5113C93.7533 66.7185 93.834 66.9252 93.9109 67.1329C94.1348 67.7379 94.7079 68.1123 95.3174 68.1123C95.4902 68.1123 95.6662 68.0822 95.8378 68.0186C96.6144 67.7312 97.0109 66.8684 96.7235 66.0919C95.6404 63.1659 94.3234 60.2989 92.8094 57.5707L92.0622 56.2241C90.7111 53.7897 88.1421 52.2773 85.3579 52.2773H83.579C82.7155 52.2773 81.9036 52.6134 81.2933 53.2241C81.2497 53.2675 81.1895 53.2926 81.1279 53.2926H71.3292H62.9904H55.2298H44.853C44.7915 53.2926 44.7311 53.2675 44.6879 53.2243C44.0774 52.6138 43.2656 52.2775 42.402 52.2775H40.6231C37.8389 52.2775 35.2701 53.7899 33.919 56.2241L33.1716 57.5709C28.2855 66.375 25.6339 76.2511 25.4346 86.2941C25.3934 87.2116 25.4169 88.1395 25.44 89.0572L25.4956 91.2752H21.1441V35.0811H32.9629V48.6517C32.9629 49.4798 33.6342 50.1511 34.4623 50.1511C35.2904 50.1511 35.9617 49.4798 35.9617 48.6517V4.81169C35.9613 2.15848 33.8028 0 31.1496 0H8.64085C5.98764 0 3.82916 2.15848 3.82916 4.81169V92.418L0.600322 98.8256C0.366169 99.2905 0.389643 99.8434 0.662658 100.287C0.935673 100.73 1.41878 101 1.93936 101H33.9502C34.0062 101 34.0614 100.996 34.1161 100.99C34.2494 100.996 34.3832 101 34.5175 101C38.494 101 42.0479 98.3332 43.1597 94.5153L46.069 84.5252C46.6387 82.5685 48.46 81.2019 50.498 81.2019H75.482C77.52 81.2019 79.3413 82.5685 79.9112 84.5254L82.8205 94.5153C83.9323 98.3334 87.486 101 91.4627 101H91.4631C91.4633 101 91.4635 101 91.4637 101C93.8255 101 96.0574 100.092 97.7483 98.4429C99.4391 96.7939 100.403 94.5853 100.462 92.2243L100.542 89.057C100.551 88.678 100.555 88.2987 100.558 87.9197C100.558 87.9201 100.558 87.9192 100.558 87.9164C100.559 87.7828 100.559 87.7728 100.559 87.801C100.56 87.5305 100.559 87.8034 100.558 87.8921ZM84.9748 56.4757C88.5157 56.4757 91.3966 59.3565 91.3966 62.8974C91.3966 66.4383 88.5157 69.3192 84.9748 69.3192C81.4339 69.3192 78.5532 66.4383 78.5532 62.8974C78.5532 59.3565 81.4339 56.4757 84.9748 56.4757ZM56.729 56.2912H62.99H69.8294V58.9016C69.8294 60.0073 68.9298 60.9068 67.8242 60.9068H58.7342C57.6285 60.9068 56.729 60.0073 56.729 58.9016V56.2912ZM35.8838 60.0353C36.5543 58.8787 37.5996 57.955 38.827 57.4344C39.5904 57.1105 40.4023 56.9463 41.2405 56.9463C44.6516 56.9463 47.4269 59.7215 47.4269 63.1328C47.4269 66.5439 44.6518 69.3192 41.2405 69.3192C37.8292 69.3192 35.0541 66.5439 35.0541 63.1328C35.0539 62.0427 35.3409 60.9717 35.8838 60.0353ZM6.82799 4.81169C6.82799 3.81215 7.64131 2.99902 8.64085 2.99902H18.1449V7.19979C18.1449 8.02791 18.8162 8.6992 19.6443 8.6992C20.4724 8.6992 21.1437 8.02791 21.1437 7.19979V2.99902H31.1498C32.1493 2.99902 32.9625 3.81215 32.9625 4.81169V32.0822H21.1437V14.2972C21.1437 13.4691 20.4724 12.7978 19.6443 12.7978C18.8162 12.7978 18.1449 13.4691 18.1449 14.2972V32.082H6.82799V4.81169ZM6.82799 35.0811H18.1447V91.275H6.82799V35.0811ZM4.37401 98.0008L6.25217 94.2738H25.8079C26.1657 95.6523 26.848 96.9259 27.8125 98.0008H4.37401ZM43.1895 83.6866L41.637 89.0177C41.2859 89.0268 40.9373 89.0298 40.5941 89.0268C40.5893 89.0268 40.5846 89.0268 40.5801 89.0268C39.7585 89.0268 39.0885 89.6892 39.0811 90.5124C39.0734 91.3405 39.7385 92.0179 40.5667 92.0256C40.6314 92.0262 40.6961 92.0266 40.761 92.0268L40.2804 93.6767C39.5389 96.2226 37.1692 98.001 34.5175 98.001C31.235 98.001 28.5994 95.4304 28.5171 92.1491L28.4384 89.0118C29.8228 89.7851 31.5479 90.5767 33.7833 91.161C34.5848 91.3703 35.4038 90.8906 35.6131 90.0895C35.8226 89.2882 35.3427 88.4689 34.5416 88.2596C31.782 87.5384 29.9335 86.4649 28.4552 85.5232C28.6832 78.8201 30.0585 72.208 32.5105 65.9842C33.7131 69.6571 37.1709 72.3184 41.2407 72.3184C42.0335 72.3184 42.8031 72.2174 43.5373 72.0277C43.4844 72.3993 43.4554 72.7786 43.4554 73.1647C43.4554 75.6761 44.6118 77.9219 46.4193 79.3995C44.8939 80.3716 43.7168 81.8759 43.1895 83.6866ZM51.8631 78.2029H51.1505C48.8459 78.0413 46.9632 76.3282 46.5432 74.1035C47.3847 74.844 48.4873 75.2948 49.6937 75.2948C52.3268 75.2948 54.4691 73.1525 54.4691 70.5194C54.4691 69.9436 54.3667 69.391 54.1789 68.8795C55.6068 69.7733 56.5591 71.3595 56.5591 73.1645C56.5591 75.8305 54.4831 78.0194 51.8631 78.2029ZM47.9172 70.5194C47.9172 69.5397 48.7141 68.743 49.6937 68.743C50.6733 68.743 51.4703 69.5397 51.4703 70.5194C51.4703 71.499 50.6733 72.2959 49.6937 72.2959C48.7141 72.2959 47.9172 71.499 47.9172 70.5194ZM68.1998 78.2027H62.99V78.2029H57.7802C58.8912 76.8224 59.5582 75.0703 59.5582 73.1645C59.5582 68.725 55.9464 65.1131 51.5068 65.1131C51.0558 65.1131 50.614 65.1522 50.1827 65.2238C50.34 64.5515 50.4258 63.8522 50.4258 63.1328C50.4258 60.4174 49.2404 57.9743 47.3611 56.2912H53.73V58.9016C53.73 61.661 55.9748 63.9059 58.7342 63.9059H67.8242C70.5835 63.9059 72.8284 61.661 72.8284 58.9016V56.2912H78.267C76.591 57.9928 75.5542 60.3261 75.5542 62.8974C75.5542 63.7033 75.6562 64.4856 75.8475 65.2327C75.4005 65.1553 74.9419 65.1129 74.4732 65.1129C70.0337 65.1129 66.4218 68.7248 66.4218 73.1643C66.4218 75.0701 67.0888 76.8222 68.1998 78.2027ZM78.2735 70.5192C78.2735 71.4988 77.4766 72.2957 76.4971 72.2957C75.5175 72.2957 74.7206 71.4988 74.7206 70.5192C74.7206 69.5396 75.5177 68.7428 76.4971 68.7428C76.7094 68.7428 76.9122 68.7822 77.101 68.8507C77.4105 69.0401 77.6975 69.2626 77.9587 69.5117C78.1567 69.7984 78.2735 70.1452 78.2735 70.5192ZM74.8295 78.2029H74.1171C71.4971 78.0192 69.4208 75.8305 69.4208 73.1645C69.4208 71.2457 70.4961 69.5735 72.0754 68.7183C71.848 69.2744 71.7217 69.8824 71.7217 70.5194C71.7217 73.1525 73.864 75.2948 76.4971 75.2948C77.5851 75.2948 78.5883 74.9284 79.3922 74.3136C78.8967 76.4354 77.0611 78.0466 74.8295 78.2029ZM97.4631 92.1491C97.3808 95.4302 94.7454 98.0006 91.4633 98.001C88.8116 98.0008 86.4421 96.2226 85.7008 93.6769L85.2202 92.027C87.6842 92.0189 90.0236 91.7291 92.1979 91.161C94.4327 90.5769 96.1576 89.7857 97.5416 89.0124L97.4631 92.1491Z" />
    <path d="M84.7392 61.7007C85.5673 61.7007 86.2386 61.0294 86.2386 60.2013C86.2386 59.3732 85.5673 58.7019 84.7392 58.7019C83.9111 58.7019 83.2397 59.3732 83.2397 60.2013C83.2397 61.0294 83.9111 61.7007 84.7392 61.7007Z" />
    <path d="M84.7392 67.5635C85.5673 67.5635 86.2386 66.8922 86.2386 66.0641C86.2386 65.236 85.5673 64.5647 84.7392 64.5647C83.9111 64.5647 83.2397 65.236 83.2397 66.0641C83.2397 66.8922 83.9111 67.5635 84.7392 67.5635Z" />
    <path d="M81.7409 64.565C82.569 64.565 83.2403 63.8937 83.2403 63.0656C83.2403 62.2375 82.569 61.5662 81.7409 61.5662C80.9128 61.5662 80.2415 62.2375 80.2415 63.0656C80.2415 63.8937 80.9128 64.565 81.7409 64.565Z" />
    <path d="M87.7377 64.565C88.5658 64.565 89.2371 63.8937 89.2371 63.0656C89.2371 62.2375 88.5658 61.5662 87.7377 61.5662C86.9096 61.5662 86.2383 62.2375 86.2383 63.0656C86.2383 63.8937 86.9096 64.565 87.7377 64.565Z" />
    <path d="M41.2404 61.7147C42.0685 61.7147 42.7398 61.0433 42.7398 60.2152C42.7398 59.3871 42.0685 58.7158 41.2404 58.7158C40.4123 58.7158 39.741 59.3871 39.741 60.2152C39.741 61.0433 40.4123 61.7147 41.2404 61.7147Z" />
    <path d="M41.2404 67.5794C42.0685 67.5794 42.7398 66.9081 42.7398 66.08C42.7398 65.2519 42.0685 64.5806 41.2404 64.5806C40.4123 64.5806 39.741 65.2519 39.741 66.08C39.741 66.9081 40.4123 67.5794 41.2404 67.5794Z" />
    <path d="M38.2418 64.5809C39.0699 64.5809 39.7413 63.9096 39.7413 63.0814C39.7413 62.2533 39.0699 61.582 38.2418 61.582C37.4137 61.582 36.7424 62.2533 36.7424 63.0814C36.7424 63.9096 37.4137 64.5809 38.2418 64.5809Z" />
    <path d="M39.4994 41.9988C40.3275 41.9988 40.9988 41.3275 40.9988 40.4994C40.9988 39.6713 40.3275 39 39.4994 39C38.6713 39 38 39.6713 38 40.4994C38 41.3275 38.6713 41.9988 39.4994 41.9988Z" />
</svg>
