<svg width="123" height="116" viewBox="0 0 123 116" xmlns="http://www.w3.org/2000/svg">
    <path d="M83.5356 106.356C60.3966 107.088 36.9472 106.656 13.8382 105.071C9.52157 104.776 6.02303 101.454 5.51967 97.1702C2.96538 75.4529 2.96538 53.4294 5.51967 31.7121C6.02303 27.4286 9.52157 24.106 13.8385 23.8114C15.9161 23.6694 17.8444 23.5457 19.7337 23.4327C20.7272 23.3734 21.4845 22.52 21.4251 21.5264C21.3656 20.5329 20.5145 19.7744 19.5189 19.8352C17.6193 19.9486 15.6811 20.0731 13.5929 20.2158C7.54681 20.6283 2.64607 25.2864 1.9404 31.2914C-0.646801 53.2882 -0.646801 75.5946 1.9404 97.5911C2.64631 103.596 7.54681 108.254 13.5924 108.667C15.7988 108.818 18.009 108.956 20.2209 109.087C20.2214 109.089 20.2217 109.091 20.2221 109.093L21.4718 114.468C21.6652 115.301 22.4064 115.863 23.2255 115.863C23.3605 115.863 23.4977 115.848 23.6351 115.816C24.6046 115.59 25.2077 114.622 24.9823 113.653L23.9693 109.295C36.4753 109.965 49.0504 110.306 61.597 110.306C68.965 110.306 76.3234 110.19 83.6499 109.958C84.6446 109.926 85.4255 109.094 85.394 108.1C85.3625 107.105 84.5252 106.317 83.5356 106.356Z"/>
    <path d="M121.06 31.2912C120.354 25.2862 115.453 20.6281 109.408 20.2156C96.8087 19.3523 84.1312 18.8346 71.4496 18.6546L84.9416 2.97761C85.5908 2.22316 85.5058 1.0855 84.7513 0.436294C83.9969 -0.212909 82.8592 -0.127614 82.21 0.626586L66.7394 18.6027C63.4208 18.5777 60.103 18.5755 56.7866 18.5974L41.321 0.626586C40.6716 -0.127614 39.5339 -0.213149 38.7797 0.436294C38.0253 1.0855 37.94 2.2234 38.5894 2.97761L52.0713 18.6433C43.6007 18.7562 35.1454 19.0208 26.7279 19.44C25.7339 19.4895 24.9682 20.3355 25.0177 21.3295C25.0671 22.3235 25.9148 23.089 26.9071 23.0395C54.1842 21.6805 81.8583 21.94 109.162 23.8112C113.478 24.1058 116.977 27.4284 117.481 31.7119C120.035 53.4292 120.035 75.4527 117.481 97.17C116.977 101.453 113.478 104.776 109.161 105.071C103.051 105.491 96.8252 105.835 90.6554 106.094C89.6609 106.136 88.8887 106.976 88.9305 107.97C88.9711 108.939 89.7691 109.697 90.7294 109.697C90.7549 109.697 90.7808 109.696 90.8063 109.695C93.5415 109.58 96.2873 109.446 99.0297 109.299L98.0177 113.652C97.7923 114.622 98.3956 115.59 99.3649 115.815C99.5021 115.847 99.6395 115.862 99.7745 115.862C100.594 115.862 101.335 115.3 101.528 114.468L102.778 109.093C102.778 109.091 102.778 109.088 102.779 109.086C104.997 108.955 107.211 108.817 109.407 108.666C115.453 108.254 120.354 103.596 121.059 97.5907C123.647 75.5944 123.647 53.2877 121.06 31.2912Z"/>
    <path d="M11.5519 35.9793C9.06052 54.8653 9.06052 74.0168 11.5519 92.9028C12.061 96.762 15.2546 99.7576 19.1455 100.026C33.1976 100.996 47.3489 101.481 61.4999 101.481C75.6509 101.481 89.8022 100.996 103.854 100.026C107.745 99.7576 110.939 96.7617 111.448 92.9028C113.939 74.0168 113.939 54.8653 111.448 35.9793C110.939 32.1201 107.745 29.1242 103.854 28.8558C75.7499 26.9159 47.2496 26.9159 19.1453 28.8558C15.2544 29.1244 12.0607 32.1203 11.5519 35.9793ZM61.4999 31.0048C75.5681 31.0048 89.6362 31.487 103.606 32.4512C105.794 32.6023 107.589 34.2842 107.875 36.4507C110.325 55.0236 110.325 73.8584 107.875 92.4316C107.589 94.5979 105.794 96.28 103.606 96.4309C75.6663 98.3595 47.3332 98.3595 19.3937 96.4309C17.2058 96.28 15.4106 94.5979 15.1246 92.4314C12.6746 73.8584 12.6746 55.0236 15.1246 36.4507C15.4103 34.2842 17.2058 32.6023 19.3937 32.4512C33.3636 31.487 47.4318 31.0048 61.4999 31.0048Z"/>
</svg>
